<?xml version="1.0" encoding="UTF-8"?>
<svg width="1290px" height="607px" viewBox="0 0 1290 607" version="1.1" xmlns="http://www.w3.org/2000/svg" xmlns:xlink="http://www.w3.org/1999/xlink">
    <title>Group 4</title>
    <defs>
        <filter x="-42.8%" y="-56.9%" width="187.9%" height="218.7%" filterUnits="objectBoundingBox" id="filter-1">
            <feOffset dx="0" dy="2" in="SourceAlpha" result="shadowOffsetOuter1"></feOffset>
            <feGaussianBlur stdDeviation="30.5" in="shadowOffsetOuter1" result="shadowBlurOuter1"></feGaussianBlur>
            <feColorMatrix values="0 0 0 0 0.768627451   0 0 0 0 0.274509804   0 0 0 0 0.756862745  0 0 0 1 0" type="matrix" in="shadowBlurOuter1" result="shadowMatrixOuter1"></feColorMatrix>
            <feMerge>
                <feMergeNode in="shadowMatrixOuter1"></feMergeNode>
                <feMergeNode in="SourceGraphic"></feMergeNode>
            </feMerge>
        </filter>
        <path d="M67.6734747,-0.000154743224 L289.704742,221.996809 C306.75624,199.416625 316.867799,171.303945 316.867799,140.829927 C316.867799,103.587583 301.765859,69.8719715 277.350973,45.4712453 L277.350973,45.4712453 L310.563375,12.2636843 C343.478053,45.1629673 363.837224,90.619224 363.837224,140.829927 C363.837224,184.280613 348.591054,224.170884 323.155791,255.4444 L323.505761,255.793062 C315.656636,265.395429 306.844745,274.180314 297.217381,282.000445 L74.9169641,59.7329359 C57.8973593,82.3012272 47.8066488,110.387343 47.8066488,140.829927 C47.8066488,177.982916 62.8362071,211.626074 87.1478984,236.012813 L53.9354856,269.220427 C21.1240043,236.335102 0.837223923,190.951285 0.837223923,140.829927 C0.837223923,97.4108579 16.0612141,57.5470241 41.4631493,26.2837366 L41.4632764,26.2835801 L41.6005137,26.1148818 C41.8124839,25.8546348 42.0251602,25.5949856 42.2385396,25.3359371 L41.4632764,26.2835801 C41.805187,25.8627766 42.1489415,25.4435313 42.4945276,25.0258564 C42.6683639,24.8157584 42.8426014,24.6061323 43.0173004,24.3969049 C43.1704153,24.2135286 43.3235695,24.0308331 43.4770758,23.8484436 C43.6212277,23.677167 43.7662216,23.5055334 43.9115275,23.3341724 C44.0511246,23.1695448 44.1906645,23.0055729 44.33049,22.8418523 C44.5113941,22.6300334 44.6927066,22.4187161 44.8744951,22.2078206 C44.9742582,22.0920834 45.0745178,21.9760656 45.1749216,21.860176 C45.3678334,21.6375114 45.5610117,21.4156237 45.7547187,21.1942101 C45.8998579,21.0283107 46.0453882,20.8625707 46.1912148,20.6970979 C46.328089,20.5417839 46.4651149,20.3868286 46.6024009,20.2321091 C46.8006394,20.0086964 46.9995458,19.785635 47.1989928,19.5630681 C47.3022738,19.4478151 47.4055505,19.3328603 47.5089715,19.218038 C47.6815347,19.0264505 47.8547192,18.8349901 48.0283051,18.6439008 C48.2056262,18.4487001 48.3831772,18.2540931 48.5611446,18.0598738 C48.6447569,17.9686263 48.7283732,17.8775599 48.8120811,17.7865791 C49.0539071,17.5237417 49.2966359,17.2614699 49.5401266,16.9999165 C49.6091036,16.9258226 49.6781723,16.8517537 49.7473021,16.7777426 C49.9655089,16.5441282 50.184246,16.3111728 50.4035891,16.0787954 C50.5664765,15.9062281 50.7298406,15.7338296 50.8935383,15.5617515 C51.029208,15.4191367 51.1649207,15.2769364 51.3008614,15.1349562 C51.5157697,14.9104991 51.7314728,14.6863592 51.9477446,14.4627727 C52.0449283,14.3623017 52.1424104,14.2617536 52.2400076,14.1613177 C52.4639399,13.9308736 52.6881107,13.7013949 52.9128826,13.4725083 C53.0209698,13.362442 53.1295146,13.2521898 53.2381989,13.1420756 C53.4063101,12.9717534 53.5745125,12.8020053 53.7430467,12.6325875 C53.8654671,12.5095251 53.9881824,12.3865172 54.1110728,12.2636843 C58.4222824,7.95448832 62.9489427,3.86068324 67.6734747,-0.000154743224 Z" id="path-2"></path>
        <filter x="-12.9%" y="-18.1%" width="128.1%" height="141.1%" filterUnits="objectBoundingBox" id="filter-3">
            <feMorphology radius="22" operator="dilate" in="SourceAlpha" result="shadowSpreadOuter1"></feMorphology>
            <feOffset dx="4" dy="7" in="shadowSpreadOuter1" result="shadowOffsetOuter1"></feOffset>
            <feGaussianBlur stdDeviation="8.5" in="shadowOffsetOuter1" result="shadowBlurOuter1"></feGaussianBlur>
            <feComposite in="shadowBlurOuter1" in2="SourceAlpha" operator="out" result="shadowBlurOuter1"></feComposite>
            <feColorMatrix values="0 0 0 0 0   0 0 0 0 0   0 0 0 0 0  0 0 0 0.5 0" type="matrix" in="shadowBlurOuter1"></feColorMatrix>
        </filter>
        <path d="M47.3372239,26 C106.704653,8.66666667 151.489981,0 181.693206,0 C211.89643,0 257.111103,8.66666667 317.337224,26" id="path-4"></path>
        <filter x="-51.0%" y="-509.6%" width="202.0%" height="1147.1%" filterUnits="objectBoundingBox" id="filter-5">
            <feMorphology radius="13.5" operator="dilate" in="SourceAlpha" result="shadowSpreadOuter1"></feMorphology>
            <feOffset dx="0" dy="2" in="shadowSpreadOuter1" result="shadowOffsetOuter1"></feOffset>
            <feMorphology radius="13.5" operator="erode" in="SourceAlpha" result="shadowInner"></feMorphology>
            <feOffset dx="0" dy="2" in="shadowInner" result="shadowInner"></feOffset>
            <feComposite in="shadowOffsetOuter1" in2="shadowInner" operator="out" result="shadowOffsetOuter1"></feComposite>
            <feGaussianBlur stdDeviation="40" in="shadowOffsetOuter1" result="shadowBlurOuter1"></feGaussianBlur>
            <feColorMatrix values="0 0 0 0 0.768627451   0 0 0 0 0.274509804   0 0 0 0 0.756862745  0 0 0 1 0" type="matrix" in="shadowBlurOuter1"></feColorMatrix>
        </filter>
    </defs>
    <g id="Page-1" stroke="none" stroke-width="1" fill="none" fill-rule="evenodd">
        <g id="Group-2" transform="translate(-208.000000, -259.500000)">
            <g id="Group-4" transform="translate(332.162776, 359.000000)">
                <g id="Logo" filter="url(#filter-1)" transform="translate(0.000000, 82.500000)" stroke-linejoin="round">
                    <g id="Combined-Shape">
                        <use fill="black" fill-opacity="1" filter="url(#filter-3)" xlink:href="#path-2"></use>
                        <path stroke="#FFDDFE" stroke-width="22" d="M68.598801,-14.6301189 L288.076256,204.813428 C299.369975,186.140465 305.867799,164.243653 305.867799,140.829927 C305.867799,106.975827 292.280123,76.2948114 270.259968,53.9415492 L270.259968,53.9415492 L261.821438,45.4433015 L310.341549,-3.06973776 C349.918401,32.2377489 374.837224,83.6242366 374.837224,140.829927 C374.837224,186.892794 358.678998,229.181617 331.728813,262.344926 C321.728286,275.54805 309.587881,286.849644 296.277335,296.615736 L296.277335,296.615736 L76.5519717,76.9228992 C65.2867388,95.5791596 58.8066488,117.448158 58.8066488,140.829927 C58.8066488,178.90577 75.9946109,212.967698 103.035817,235.682415 L103.035817,235.682415 L54.1473311,284.563837 C14.6781975,249.261362 -10.1627761,197.946164 -10.1627761,140.829927 C-10.1627761,95.2345928 5.66924839,53.3371512 32.1328093,20.3298325 L32.1328093,20.3298325 L32.9178411,19.3571035 C33.293951,18.8950659 33.5206261,18.6183541 33.7480365,18.3422715 C34.2142987,17.7779747 34.3955021,17.5600791 34.5806707,17.3383362 L34.5806707,17.3383362 L35.0540715,16.7736213 C35.2092218,16.5892556 35.3653009,16.4044894 35.5217422,16.2199962 C35.6724891,16.0422196 35.823173,15.8651645 35.9741781,15.6883773 L35.9741781,15.6883773 L36.5406493,15.0281617 C37.0673802,14.4192201 37.2713393,14.1850222 37.4758146,13.9513 C37.6296874,13.7754178 37.7839748,13.5997045 37.9385829,13.4242672 C38.0836889,13.2596123 38.2289559,13.0953378 38.3744909,12.9313217 C38.5846567,12.6944671 38.7955305,12.4579849 39.0069776,12.2220268 C39.5238098,11.6472519 39.7047989,11.4472345 39.8861832,11.2475603 C40.0741655,11.0406236 40.2623914,10.8343161 40.4510588,10.6284198 C40.979019,10.0539736 41.2335881,9.77898623 41.4889171,9.50471636 C41.9446475,9.01639791 42.1741725,8.77201046 42.4042962,8.52821172 C42.5769815,8.34526428 42.750172,8.16249594 42.9237275,7.98005546 C43.0675516,7.82886887 43.2114212,7.67812172 43.3555191,7.52762184 C43.5833544,7.2896634 43.8120323,7.05204117 44.0413131,6.81500558 C44.5943878,6.24508381 44.8291402,6.00484957 45.0644837,5.76519793 C45.2846481,5.54175457 45.4435783,5.3806424 45.5668106,5.25591331 L45.6991889,5.12204159 C45.797949,5.02226725 45.8712259,4.94849674 45.9445563,4.87478195 C46.0743399,4.74431772 46.2044361,4.61391131 46.3347153,4.48369303 C53.2541284,-2.43248822 60.6970622,-8.8252914 68.598801,-14.6301189 L68.598801,-14.6301189 Z" fill="#C446C1" fill-rule="evenodd"></path>
                    </g>
                </g>
                <g id="NOETHEN-ESPORTS" transform="translate(493.605690, 121.789773)" fill="#FFFFFF" fill-rule="nonzero">
                    <polygon id="Path" points="86.6548295 1.39204545 86.6548295 103.210227 65.7741477 103.210227 25.2556818 44.4460227 24.609375 44.4460227 24.609375 103.210227 0 103.210227 0 1.39204545 21.1789773 1.39204545 61.25 60.0568182 62.0951705 60.0568182 62.0951705 1.39204545"></polygon>
                    <path d="M198.167614,52.3011364 C198.167614,63.5037879 196.013258,72.9995265 191.704545,80.7883523 C187.395833,88.577178 181.570786,94.4933712 174.229403,98.5369318 C166.888021,102.580492 158.660038,104.602273 149.545455,104.602273 C140.397727,104.602273 132.161458,102.56392 124.836648,98.4872159 C117.511837,94.4105114 111.703362,88.4860322 107.411222,80.7137784 C103.119081,72.9415246 100.973011,63.4706439 100.973011,52.3011364 C100.973011,41.0984848 103.119081,31.6027462 107.411222,23.8139205 C111.703362,16.0250947 117.511837,10.1089015 124.836648,6.06534091 C132.161458,2.0217803 140.397727,0 149.545455,0 C158.660038,0 166.888021,2.0217803 174.229403,6.06534091 C181.570786,10.1089015 187.395833,16.0250947 191.704545,23.8139205 C196.013258,31.6027462 198.167614,41.0984848 198.167614,52.3011364 Z M173.011364,52.3011364 C173.011364,45.6723485 172.075047,40.0710227 170.202415,35.4971591 C168.329782,30.9232955 165.645123,27.4597538 162.148437,25.1065341 C158.651752,22.7533144 154.450758,21.5767045 149.545455,21.5767045 C144.673295,21.5767045 140.480587,22.7533144 136.96733,25.1065341 C133.454072,27.4597538 130.761127,30.9232955 128.888494,35.4971591 C127.015862,40.0710227 126.079545,45.6723485 126.079545,52.3011364 C126.079545,58.9299242 127.015862,64.53125 128.888494,69.1051136 C130.761127,73.6789773 133.454072,77.1425189 136.96733,79.4957386 C140.480587,81.8489583 144.673295,83.0255682 149.545455,83.0255682 C154.450758,83.0255682 158.651752,81.8489583 162.148437,79.4957386 C165.645123,77.1425189 168.329782,73.6789773 170.202415,69.1051136 C172.075047,64.53125 173.011364,58.9299242 173.011364,52.3011364 Z" id="Shape"></path>
                    <polygon id="Path" points="212.485795 103.210227 212.485795 1.39204545 283.480114 1.39204545 283.480114 21.3778409 237.09517 21.3778409 237.09517 42.2585227 279.850852 42.2585227 279.850852 62.2940341 237.09517 62.2940341 237.09517 83.2244318 283.480114 83.2244318 283.480114 103.210227"></polygon>
                    <polygon id="Path" points="295.56108 21.3778409 295.56108 1.39204545 381.619318 1.39204545 381.619318 21.3778409 350.745739 21.3778409 350.745739 103.210227 326.484375 103.210227 326.484375 21.3778409"></polygon>
                    <polygon id="Path" points="393.700284 103.210227 393.700284 1.39204545 418.309659 1.39204545 418.309659 42.2585227 458.430398 42.2585227 458.430398 1.39204545 482.990057 1.39204545 482.990057 103.210227 458.430398 103.210227 458.430398 62.2940341 418.309659 62.2940341 418.309659 103.210227"></polygon>
                    <polygon id="Path" points="498.401989 103.210227 498.401989 1.39204545 569.396307 1.39204545 569.396307 21.3778409 523.011364 21.3778409 523.011364 42.2585227 565.767045 42.2585227 565.767045 62.2940341 523.011364 62.2940341 523.011364 83.2244318 569.396307 83.2244318 569.396307 103.210227"></polygon>
                    <polygon id="Path" points="671.463068 1.39204545 671.463068 103.210227 650.582386 103.210227 610.06392 44.4460227 609.417614 44.4460227 609.417614 103.210227 584.808239 103.210227 584.808239 1.39204545 605.987216 1.39204545 646.058239 60.0568182 646.903409 60.0568182 646.903409 1.39204545"></polygon>
                    <polygon id="Path" points="165.051847 203.210227 165.051847 147.210227 200.161222 147.210227 200.161222 154.483665 173.501065 154.483665 173.501065 171.546165 198.32919 171.546165 198.32919 178.792259 173.501065 178.792259 173.501065 195.93679 200.489347 195.93679 200.489347 203.210227"></polygon>
                    <path d="M242.024503,161.921165 C241.732836,159.332623 240.529711,157.322857 238.415128,155.891868 C236.300545,154.460878 233.639086,153.745384 230.430753,153.745384 C228.133878,153.745384 226.146899,154.10541 224.469815,154.825462 C222.792732,155.545514 221.493904,156.529889 220.573331,157.778587 C219.652758,159.027285 219.192472,160.444602 219.192472,162.03054 C219.192472,163.361269 219.506925,164.509706 220.135831,165.475852 C220.764737,166.441998 221.594164,167.248639 222.624112,167.895774 C223.65406,168.54291 224.761482,169.08067 225.946378,169.509055 C227.131274,169.937441 228.270597,170.288352 229.364347,170.56179 L234.833097,171.983665 C236.619555,172.421165 238.451586,173.013613 240.32919,173.761009 C242.206795,174.508404 243.94768,175.492779 245.551847,176.714134 C247.156013,177.935488 248.454841,179.448509 249.448331,181.253196 C250.441821,183.057884 250.938565,185.21804 250.938565,187.733665 C250.938565,190.90554 250.12281,193.721946 248.4913,196.182884 C246.859789,198.643821 244.499112,200.585227 241.409268,202.007102 C238.319425,203.428977 234.587003,204.139915 230.212003,204.139915 C226.019295,204.139915 222.39169,203.47455 219.32919,202.143821 C216.26669,200.813092 213.869555,198.921816 212.137784,196.469993 C210.406013,194.01817 209.448982,191.106061 209.26669,187.733665 L217.743253,187.733665 C217.907315,189.757102 218.568123,191.438743 219.725675,192.778587 C220.883227,194.11843 222.368904,195.11192 224.182706,195.759055 C225.996508,196.406191 227.988045,196.729759 230.157315,196.729759 C232.545336,196.729759 234.673591,196.351503 236.542081,195.594993 C238.410571,194.838482 239.882576,193.781191 240.958097,192.423118 C242.033617,191.065045 242.571378,189.47455 242.571378,187.651634 C242.571378,185.992779 242.101977,184.634706 241.163175,183.577415 C240.224373,182.520123 238.957446,181.645123 237.362393,180.952415 C235.767341,180.259706 233.967211,179.649029 231.962003,179.120384 L225.344815,177.315696 C220.86044,176.094342 217.31031,174.298769 214.694425,171.928977 C212.078539,169.559186 210.770597,166.423769 210.770597,162.522727 C210.770597,159.296165 211.645597,156.479759 213.395597,154.073509 C215.145597,151.667259 217.515388,149.794212 220.504972,148.454368 C223.494555,147.114524 226.866951,146.444602 230.622159,146.444602 C234.413826,146.444602 237.763435,147.109967 240.670987,148.440696 C243.578539,149.771425 245.870857,151.598899 247.54794,153.923118 C249.225024,156.247337 250.100024,158.913352 250.17294,161.921165 L242.024503,161.921165 Z" id="Path"></path>
                    <path d="M261.028409,203.210227 L261.028409,147.210227 L280.989347,147.210227 C285.346117,147.210227 288.955492,148.003196 291.817472,149.589134 C294.679451,151.175071 296.821378,153.339785 298.243253,156.083274 C299.665128,158.826764 300.376065,161.91205 300.376065,165.339134 C300.376065,168.784446 299.660571,171.878847 298.229581,174.622337 C296.798591,177.365826 294.64755,179.535097 291.776456,181.130149 C288.905362,182.725201 285.300545,183.522727 280.962003,183.522727 L267.23544,183.522727 L267.23544,176.358665 L280.196378,176.358665 C282.948982,176.358665 285.182055,175.880149 286.895597,174.923118 C288.609138,173.966087 289.866951,172.658144 290.669034,170.99929 C291.471117,169.340436 291.872159,167.453717 291.872159,165.339134 C291.872159,163.22455 291.471117,161.346946 290.669034,159.706321 C289.866951,158.065696 288.604581,156.78054 286.881925,155.850852 C285.159268,154.921165 282.894295,154.456321 280.087003,154.456321 L269.477628,154.456321 L269.477628,203.210227 L261.028409,203.210227 Z" id="Path"></path>
                    <path d="M358.89169,175.210227 C358.89169,181.189394 357.79794,186.325462 355.61044,190.61843 C353.42294,194.911399 350.4288,198.210878 346.628018,200.516868 C342.827237,202.822857 338.511482,203.975852 333.680753,203.975852 C328.831795,203.975852 324.506925,202.822857 320.706143,200.516868 C316.905362,198.210878 313.911222,194.906842 311.723722,190.604759 C309.536222,186.302675 308.442472,181.171165 308.442472,175.210227 C308.442472,169.231061 309.536222,164.094993 311.723722,159.802024 C313.911222,155.509055 316.905362,152.209576 320.706143,149.903587 C324.506925,147.597597 328.831795,146.444602 333.680753,146.444602 C338.511482,146.444602 342.827237,147.597597 346.628018,149.903587 C350.4288,152.209576 353.42294,155.509055 355.61044,159.802024 C357.79794,164.094993 358.89169,169.231061 358.89169,175.210227 Z M350.524503,175.210227 C350.524503,170.652936 349.790779,166.811139 348.323331,163.684837 C346.855883,160.558535 344.850675,158.188743 342.307706,156.575462 C339.764737,154.96218 336.889086,154.15554 333.680753,154.15554 C330.45419,154.15554 327.573982,154.96218 325.040128,156.575462 C322.506274,158.188743 320.505623,160.558535 319.038175,163.684837 C317.570727,166.811139 316.837003,170.652936 316.837003,175.210227 C316.837003,179.767519 317.570727,183.609316 319.038175,186.735618 C320.505623,189.86192 322.506274,192.231712 325.040128,193.844993 C327.573982,195.458274 330.45419,196.264915 333.680753,196.264915 C336.889086,196.264915 339.764737,195.458274 342.307706,193.844993 C344.850675,192.231712 346.855883,189.86192 348.323331,186.735618 C349.790779,183.609316 350.524503,179.767519 350.524503,175.210227 Z" id="Shape"></path>
                    <path d="M369.39169,203.210227 L369.39169,147.210227 L389.352628,147.210227 C393.69117,147.210227 397.295987,147.957623 400.167081,149.452415 C403.038175,150.947206 405.184659,153.01166 406.606534,155.645774 C408.028409,158.279889 408.739347,161.319602 408.739347,164.764915 C408.739347,168.191998 408.023852,171.204368 406.592862,173.802024 C405.161873,176.39968 403.010831,178.418561 400.139737,179.858665 C397.268643,181.298769 393.663826,182.018821 389.325284,182.018821 L374.20419,182.018821 L374.20419,174.745384 L388.559659,174.745384 C391.294034,174.745384 393.52255,174.353456 395.245206,173.569602 C396.967862,172.785748 398.230232,171.646425 399.032315,170.151634 C399.834399,168.656842 400.23544,166.861269 400.23544,164.764915 C400.23544,162.650331 399.829841,160.8183 399.018643,159.268821 C398.207446,157.719342 396.940518,156.529889 395.217862,155.700462 C393.495206,154.871035 391.239347,154.456321 388.450284,154.456321 L377.840909,154.456321 L377.840909,203.210227 L369.39169,203.210227 Z M397.036222,177.944602 L410.872159,203.210227 L401.247159,203.210227 L387.684659,177.944602 L397.036222,177.944602 Z" id="Shape"></path>
                    <polygon id="Path" points="416.286222 154.483665 416.286222 147.210227 459.626065 147.210227 459.626065 154.483665 442.153409 154.483665 442.153409 203.210227 433.731534 203.210227 433.731534 154.483665"></polygon>
                    <path d="M499.712003,161.921165 C499.420336,159.332623 498.217211,157.322857 496.102628,155.891868 C493.988045,154.460878 491.326586,153.745384 488.118253,153.745384 C485.821378,153.745384 483.834399,154.10541 482.157315,154.825462 C480.480232,155.545514 479.181404,156.529889 478.260831,157.778587 C477.340258,159.027285 476.879972,160.444602 476.879972,162.03054 C476.879972,163.361269 477.194425,164.509706 477.823331,165.475852 C478.452237,166.441998 479.281664,167.248639 480.311612,167.895774 C481.34156,168.54291 482.448982,169.08067 483.633878,169.509055 C484.818774,169.937441 485.958097,170.288352 487.051847,170.56179 L492.520597,171.983665 C494.307055,172.421165 496.139086,173.013613 498.01669,173.761009 C499.894295,174.508404 501.63518,175.492779 503.239347,176.714134 C504.843513,177.935488 506.142341,179.448509 507.135831,181.253196 C508.129321,183.057884 508.626065,185.21804 508.626065,187.733665 C508.626065,190.90554 507.81031,193.721946 506.1788,196.182884 C504.547289,198.643821 502.186612,200.585227 499.096768,202.007102 C496.006925,203.428977 492.274503,204.139915 487.899503,204.139915 C483.706795,204.139915 480.07919,203.47455 477.01669,202.143821 C473.95419,200.813092 471.557055,198.921816 469.825284,196.469993 C468.093513,194.01817 467.136482,191.106061 466.95419,187.733665 L475.430753,187.733665 C475.594815,189.757102 476.255623,191.438743 477.413175,192.778587 C478.570727,194.11843 480.056404,195.11192 481.870206,195.759055 C483.684008,196.406191 485.675545,196.729759 487.844815,196.729759 C490.232836,196.729759 492.361091,196.351503 494.229581,195.594993 C496.098071,194.838482 497.570076,193.781191 498.645597,192.423118 C499.721117,191.065045 500.258878,189.47455 500.258878,187.651634 C500.258878,185.992779 499.789477,184.634706 498.850675,183.577415 C497.911873,182.520123 496.644946,181.645123 495.049893,180.952415 C493.454841,180.259706 491.654711,179.649029 489.649503,179.120384 L483.032315,177.315696 C478.54794,176.094342 474.99781,174.298769 472.381925,171.928977 C469.766039,169.559186 468.458097,166.423769 468.458097,162.522727 C468.458097,159.296165 469.333097,156.479759 471.083097,154.073509 C472.833097,151.667259 475.202888,149.794212 478.192472,148.454368 C481.182055,147.114524 484.554451,146.444602 488.309659,146.444602 C492.101326,146.444602 495.450935,147.109967 498.358487,148.440696 C501.266039,149.771425 503.558357,151.598899 505.23544,153.923118 C506.912524,156.247337 507.787524,158.913352 507.86044,161.921165 L499.712003,161.921165 Z" id="Path"></path>
                </g>
                <g id="Line" stroke-linecap="round" stroke-linejoin="round" transform="translate(182.337224, 13.000000) scale(1, -1) translate(-182.337224, -13.000000) ">
                    <use fill="black" fill-opacity="1" filter="url(#filter-5)" xlink:href="#path-4"></use>
                    <use stroke="#FFD9FE" stroke-width="27" xlink:href="#path-4"></use>
                </g>
            </g>
        </g>
    </g>
</svg>